<?xml version="1.0" encoding="utf-8"?>
<!-- Generator: Adobe Illustrator 18.0.0, SVG Export Plug-In . SVG Version: 6.00 Build 0)  -->
<!DOCTYPE svg PUBLIC "-//W3C//DTD SVG 1.1//EN" "http://www.w3.org/Graphics/SVG/1.1/DTD/svg11.dtd">
<svg version="1.1" id="レイヤー_1" xmlns="http://www.w3.org/2000/svg" xmlns:xlink="http://www.w3.org/1999/xlink" x="0px"
	 y="0px" viewBox="0 0 132.1 132.1" enable-background="new 0 0 132.1 132.1" xml:space="preserve">
<g>
	<circle fill="#CF121B" cx="66" cy="66" r="66"/>
	<g>
		<g>
			<path fill="#FFFFFF" d="M38.3,58.4c0,2.6-0.9,4.9-2.8,6.7c-1.9,1.9-4.1,2.8-6.7,2.8h-2.4c-1.8,0-3.5-0.5-5-1.4
				c-1.5-0.9-2.7-2.2-3.5-3.9c-0.3-0.5-0.4-1-0.4-1.5c0-1.4,0.6-2.4,1.9-3c0.5-0.2,1-0.4,1.5-0.4c1.4,0,2.5,0.6,3.1,1.9
				c0.5,1,1.3,1.5,2.3,1.5h2.4c0.7,0,1.3-0.3,1.9-0.8c0.5-0.5,0.8-1.1,0.8-1.9V55c0-0.2-0.1-0.2-0.2-0.2c-0.8,0.2-1.6,0.3-2.4,0.3
				h-2.4c-2.6,0-4.8-0.9-6.7-2.8c-1.9-1.9-2.8-4.1-2.8-6.7v-4.9c0-2.6,0.9-4.9,2.8-6.7c1.9-1.9,4.1-2.8,6.7-2.8h2.4
				c2.6,0,4.8,0.9,6.7,2.8c1.9,1.9,2.8,4.1,2.8,6.7V58.4z M31.5,45.6v-4.9c0-0.7-0.3-1.3-0.8-1.9c-0.5-0.5-1.1-0.8-1.9-0.8h-2.4
				c-0.7,0-1.3,0.3-1.9,0.8c-0.5,0.5-0.8,1.1-0.8,1.9v4.9c0,0.7,0.3,1.3,0.8,1.9c0.5,0.5,1.1,0.8,1.9,0.8h2.4c0.7,0,1.3-0.3,1.9-0.8
				C31.2,47,31.5,46.4,31.5,45.6z"/>
		</g>
		<g>
			<path fill="#FFFFFF" d="M56.6,32.8L41,67.2c-0.3,0.6-0.7,0.7-1.3,0.5c-0.6-0.2-0.8-0.7-0.5-1.3L54.8,32c0.3-0.6,0.7-0.8,1.3-0.5
				C56.7,31.7,56.9,32.2,56.6,32.8z"/>
		</g>
	</g>
	<g>
		<path fill="#FFFFFF" d="M85.5,75.3c0,1.2-0.4,2.3-1.3,3.2c-0.9,0.9-2,1.3-3.2,1.3H61.7c-1.3,0-2.4-0.4-3.2-1.3
			c-0.9-0.9-1.3-2-1.3-3.2c0-0.9,0.3-1.8,0.8-2.6l17.6-26c0.6-0.9,0.9-1.9,0.9-3c0-1-0.3-1.8-1-2.5c-0.7-0.7-1.5-1-2.5-1h-3.2
			c-1.5,0-2.5,0.7-3.1,2c-0.8,1.7-2.2,2.5-4.1,2.5c-0.7,0-1.4-0.1-2-0.4c-1.7-0.9-2.6-2.2-2.6-4.1c0-0.7,0.2-1.4,0.5-2.1
			c1.1-2.1,2.6-3.8,4.6-5.1c2-1.3,4.2-1.9,6.6-1.9h3.2c3.5,0,6.4,1.2,8.9,3.7c2.5,2.5,3.7,5.5,3.7,9c0,3-0.8,5.6-2.4,8L70.5,70.4
			c-0.1,0.2-0.1,0.3,0.1,0.3H81c1.2,0,2.3,0.4,3.2,1.3C85.1,73,85.5,74.1,85.5,75.3z"/>
		<path fill="#FFFFFF" d="M116.8,67.4c0,3.5-1.2,6.4-3.7,8.9c-2.5,2.5-5.4,3.7-8.9,3.7h-3.9c-2.4,0-4.6-0.6-6.7-1.9
			c-2-1.2-3.6-3-4.7-5.1c-0.3-0.6-0.4-1.3-0.4-2c0-1.9,0.8-3.3,2.5-4.1c0.6-0.3,1.3-0.5,2.1-0.5c1.9,0,3.2,0.9,4.1,2.6
			c0.7,1.3,1.7,1.9,3.2,1.9h3.9c1,0,1.8-0.3,2.5-1c0.7-0.7,1-1.5,1-2.5v-3.7c0-1-0.3-1.8-1-2.5c-0.7-0.7-1.5-1-2.5-1h-4.1
			c-1.2,0-2.3-0.4-3.2-1.3c-0.9-0.9-1.3-2-1.3-3.3c0-1.2,0.4-2.3,1.3-3.2c0.9-0.9,2-1.3,3.2-1.3h4.1c1,0,1.8-0.3,2.5-1
			c0.7-0.7,1-1.5,1-2.5v-3.7c0-1-0.3-1.8-1-2.5c-0.7-0.7-1.5-1-2.5-1h-3.9c-1.5,0-2.6,0.7-3.2,2C96.3,44.1,94.9,45,93,45
			c-0.7,0-1.4-0.1-2-0.4c-1.7-0.8-2.6-2.2-2.6-4.2c0-0.7,0.1-1.3,0.4-1.9c1-2.2,2.6-4,4.6-5.3c2.1-1.3,4.3-2,6.8-2h3.9
			c3.5,0,6.5,1.2,8.9,3.7c2.5,2.5,3.7,5.5,3.7,9v3.7c0,2.9-0.9,5.5-2.7,7.8c-0.1,0.2-0.1,0.4,0,0.6c1.8,2.3,2.7,4.9,2.7,7.8V67.4z"
			/>
	</g>
	<g>
		<g>
			<path fill="#FFFFFF" d="M52.1,86.7c0.3,0,0.6,0,0.6,0.3c0,0.3-0.2,0.3-0.6,0.4v7c0,0.4,0,0.6,0.1,0.7c1.6-2.2,2.2-3.3,3.1-5.8
				l3.6,1.2c0.2,0.1,0.5,0.2,0.5,0.4c0,0.1,0,0.4-0.7,0.4c-0.6,1.6-1.9,4-3.2,5.8c-1.3-1-2.7-1.7-3.3-1.9c1.2,4.4,6,6.4,7.7,6.9
				c-1.2,1.2-1.8,2.1-2.3,3.4c-4.3-1.6-6.7-4.6-7.5-6.2c-1.7,3.5-5.3,5.3-7,6.2c-1.2-1.8-1.7-2.4-2.9-3.3C47.9,99.5,48,96,48,86.6
				L52.1,86.7z M46.8,90.4c0.4,0.1,0.5,0.2,0.5,0.4c0,0.3-0.4,0.4-0.6,0.5c-0.5,2-1.5,4.6-2.8,6.6c-1.3-0.8-2.3-1.2-3.5-1.6
				c1.2-2,2.3-4.9,2.7-6.7L46.8,90.4z"/>
			<path fill="#FFFFFF" d="M69.1,96.1c0,1.6-1.3,2.9-2.9,2.9c-1.6,0-2.9-1.3-2.9-2.9c0-1.6,1.3-2.9,2.9-2.9
				C67.8,93.1,69.1,94.4,69.1,96.1z"/>
			<path fill="#FFFFFF" d="M81.3,96.5v-4.2c-0.5,1-1.2,2-1.9,2.9c0.9,0.9,1.5,1.3,2.6,2c-0.9,1-1.4,1.7-1.9,2.8
				c-0.4-0.3-0.7-0.6-1.4-1.3v6.9H75v-5.9c-0.5,0.4-0.6,0.4-1,0.6c-0.4-1.2-0.8-2.1-1.7-3.5c1.5-0.9,3.2-2,4.4-4.1h-3.7v-3.4H75
				v-2.7l3.9,0.1c0.2,0,0.4,0,0.4,0.2c0,0.3-0.3,0.4-0.5,0.5v1.8h1.6l1,0.9v-3.1h10.1v9.4h-1.9v5.1c0,0.1,0,0.3,0.2,0.3
				c0.1,0,0.2,0,0.3-0.3c0.1-0.5,0.1-1.5,0.1-1.9c1,1,1.7,1.2,2.1,1.3c-0.2,3.4-0.9,4.2-2.3,4.2H88c-1.4,0-2.1-0.5-2.1-2v-5.5
				c-0.1,0.1-0.2,0.1-0.6,0.2c-0.1,1.1-0.3,2.5-1.1,4.2c-0.1,0.2-1.1,2.3-2.4,3.3c-1.1-1.1-1.7-1.5-3-2.1c3-2.6,3.2-5.4,3.3-6.8
				H81.3z M85.7,97.1c0.1,0,0.2,0.1,0.3,0.1v-0.7h-2.3L85.7,97.1z M85,90.5v2.7h2.7v-2.7H85z"/>
		</g>
	</g>
</g>
</svg>
