<?xml version="1.0" encoding="iso-8859-1"?>
<!-- Generator: Adobe Illustrator 19.1.0, SVG Export Plug-In . SVG Version: 6.00 Build 0)  -->
<svg version="1.1" id="&#x30EC;&#x30A4;&#x30E4;&#x30FC;_1"
	 xmlns="http://www.w3.org/2000/svg" xmlns:xlink="http://www.w3.org/1999/xlink" x="0px" y="0px" viewBox="0 0 169.628 132.082"
	 style="enable-background:new 0 0 169.628 132.082;" xml:space="preserve">
<g>
	<circle style="fill:#CF121B;" cx="34.333" cy="43.128" r="34.333"/>
	<circle style="fill:#CF121B;" cx="97.794" cy="66.042" r="66.041"/>
	<g>
		<g>
			<path style="fill:#FFFFFF;" d="M27.133,59.033c0,0.939-0.336,1.746-1.008,2.418c-0.673,0.673-1.478,1.01-2.416,1.01
				c-0.969,0-1.782-0.336-2.438-1.009c-0.657-0.672-0.985-1.479-0.985-2.418V35.603c0-0.156-0.085-0.188-0.253-0.094l-0.509,0.293
				c-0.53,0.326-1.092,0.489-1.685,0.489c-1.342,0-2.34-0.578-2.995-1.735c-0.312-0.531-0.468-1.094-0.468-1.688
				c0-1.344,0.578-2.345,1.735-3.002l5.862-3.376c0.531-0.344,1.11-0.516,1.735-0.516c0.938,0,1.743,0.337,2.416,1.01
				c0.672,0.674,1.008,1.479,1.008,2.419V59.033z"/>
			<path style="fill:#FFFFFF;" d="M45.939,59.033c0,0.939-0.336,1.746-1.008,2.418c-0.673,0.673-1.478,1.01-2.416,1.01
				c-0.969,0-1.782-0.336-2.438-1.009c-0.657-0.672-0.985-1.479-0.985-2.418V35.603c0-0.156-0.084-0.188-0.253-0.094l-0.509,0.293
				c-0.53,0.326-1.092,0.489-1.685,0.489c-1.342,0-2.34-0.578-2.995-1.735c-0.312-0.531-0.468-1.094-0.468-1.688
				c0-1.344,0.578-2.345,1.735-3.002l5.862-3.376c0.531-0.344,1.11-0.516,1.735-0.516c0.938,0,1.743,0.337,2.416,1.01
				c0.672,0.674,1.008,1.479,1.008,2.419V59.033z"/>
		</g>
		<g>
			<path style="fill:#FFFFFF;" d="M66.061,27.427L50.445,61.899c-0.282,0.594-0.72,0.75-1.314,0.468
				c-0.626-0.25-0.798-0.688-0.517-1.313l15.599-34.433c0.285-0.619,0.727-0.789,1.327-0.507
				C66.169,26.396,66.343,26.834,66.061,27.427z"/>
		</g>
	</g>
	<g>
		<path style="fill:#FFFFFF;" d="M86.897,93.997c0,1.694-0.606,3.147-1.818,4.36c-1.213,1.214-2.664,1.82-4.354,1.82
			c-1.748,0-3.213-0.607-4.397-1.819c-1.184-1.213-1.775-2.666-1.775-4.359V51.756c0-0.281-0.152-0.338-0.456-0.169l-0.916,0.528
			c-0.957,0.588-1.97,0.881-3.038,0.881c-2.419,0-4.218-1.042-5.399-3.128c-0.562-0.958-0.844-1.973-0.844-3.044
			c0-2.423,1.043-4.228,3.128-5.411l10.569-6.088c0.958-0.62,2-0.93,3.128-0.93c1.691,0,3.142,0.608,4.354,1.821
			c1.211,1.214,1.818,2.667,1.818,4.359V93.997z"/>
		<path style="fill:#FFFFFF;" d="M133.738,83.215c0,4.727-1.678,8.763-5.031,12.111c-3.354,3.348-7.398,5.02-12.133,5.02h-5.496
			c-3.213,0-6.187-0.841-8.92-2.524c-2.735-1.683-4.834-3.956-6.299-6.817c-0.452-0.898-0.676-1.825-0.676-2.779
			c0-2.523,1.131-4.346,3.393-5.469c0.848-0.449,1.781-0.674,2.8-0.674c2.544,0,4.382,1.112,5.514,3.334
			c0.904,1.723,2.317,2.585,4.241,2.585h5.513c1.3,0,2.417-0.477,3.351-1.431c0.933-0.954,1.4-2.075,1.4-3.366V74.45
			c0-1.346-0.468-2.482-1.4-3.408c-0.933-0.925-2.051-1.389-3.351-1.389h-5.513c-1.923,0-3.337,0.874-4.241,2.621
			c-1.132,2.255-2.97,3.382-5.514,3.382c-1.697,0-3.154-0.606-4.369-1.822c-1.215-1.214-1.823-2.669-1.823-4.364V40.581
			c0-1.694,0.592-3.148,1.776-4.364c1.184-1.214,2.648-1.822,4.396-1.822h24.858c1.691,0,3.142,0.606,4.354,1.818
			c1.211,1.213,1.818,2.664,1.818,4.354c0,1.748-0.606,3.213-1.818,4.397c-1.213,1.184-2.664,1.775-4.354,1.775H107.95
			c-0.283,0-0.423,0.17-0.423,0.511v10.058c0,0.338,0.14,0.48,0.423,0.423c1.296-0.281,2.338-0.423,3.128-0.423h5.496
			c4.735,0,8.779,1.674,12.133,5.022c3.353,3.348,5.031,7.384,5.031,12.109V83.215z"/>
	</g>
	<circle style="fill:#FFFFFF;stroke:#CF121B;stroke-width:3.61;" cx="147.667" cy="109.748" r="20.156"/>
	<g>
		<g>
			<path style="fill:#CF121B;" d="M143.873,119.817v1.25h-4.949V99.972h19.246v20.97h-4.899v-1.125H143.873z M153.271,107.695
				v-3.649h-9.398v3.649H153.271z M153.271,115.643v-3.849h-9.398v3.849H153.271z"/>
		</g>
	</g>
</g>
</svg>
