<?xml version="1.0" encoding="iso-8859-1"?>
<!-- Generator: Adobe Illustrator 19.1.0, SVG Export Plug-In . SVG Version: 6.00 Build 0)  -->
<svg version="1.1" id="&#x30EC;&#x30A4;&#x30E4;&#x30FC;_1"
	 xmlns="http://www.w3.org/2000/svg" xmlns:xlink="http://www.w3.org/1999/xlink" x="0px" y="0px" viewBox="0 0 411.711 74.818"
	 style="enable-background:new 0 0 411.711 74.818;" xml:space="preserve">
<g>
	<path style="fill:#CF121B;" d="M31.14,0v43.47H2.953c-1.539,0-2.307-1.442-2.307-4.325V0h10.525v34.243h9.299V0H31.14z"/>
	<path style="fill:#CF121B;" d="M61.777,26.385H38.492v-9.011h23.285V26.385z"/>
	<path style="fill:#CF121B;" d="M87.297,43.47H76.771V9.155h-5.094c-1.795,0-2.692-1.429-2.692-4.288V0.288h18.311V43.47z"/>
	<path style="fill:#CF121B;" d="M125.143,43.47H97.46c-0.769,0-1.454-0.408-2.054-1.226c-0.602-0.816-0.901-1.85-0.901-3.1V10.669
		c-0.048-3.219,0.604-5.803,1.956-7.75C97.812,0.973,99.526,0,101.603,0h20.497c0.773,0,1.472,0.421,2.101,1.262
		c0.627,0.841,0.941,1.863,0.941,3.063v4.83h-20.329v7.786h12.081c2.267,0,4.172,0.865,5.715,2.595
		c1.688,1.923,2.532,4.59,2.532,8.002V43.47z M114.618,34.243v-3.931c0-1.286-0.267-2.334-0.8-3.144
		c-0.533-0.81-1.163-1.216-1.888-1.216h-6.9v8.29H114.618z"/>
	<path style="fill:#CF121B;" d="M188.292,44.479h-7.858c-0.769,0-1.406-0.396-1.91-1.189c-0.505-0.793-0.757-1.813-0.757-3.064
		v-8.435c0-1.201-0.335-2.21-1.001-3.028c-0.668-0.816-1.407-1.226-2.218-1.226h-6.008v16.941h-8.002
		c-0.77,0-1.406-0.397-1.911-1.192c-0.504-0.794-0.757-1.817-0.757-3.068V1.009h10.669v17.518h6.082c0.746,0,1.456-0.42,2.132-1.261
		c0.676-0.84,1.014-1.862,1.014-3.064V1.081l10.525-0.072V11.03c0.047,7.065-1.946,10.597-5.983,10.597
		c4.085,0,6.079,3.557,5.983,10.669V44.479z"/>
	<path style="fill:#CF121B;" d="M225.995,0v43.47h-28.187c-1.539,0-2.307-1.442-2.307-4.325V0h10.525v34.243h9.3V0H225.995z"/>
	<path style="fill:#CF121B;" d="M263.697,39.217c0,1.25-0.252,2.271-0.756,3.064c-0.503,0.793-1.115,1.189-1.834,1.189h-27.76
		v-9.228h19.824v-7.858h-12.76c-2.066,0-3.773-0.97-5.118-2.912c-1.346-1.941-1.995-4.517-1.946-7.729V10.64
		c-0.049-3.21,0.61-5.787,1.977-7.728C236.691,0.971,238.406,0,240.467,0h20.28c0.768,0,1.451,0.421,2.051,1.262
		c0.599,0.841,0.898,1.863,0.898,3.063v4.83h-19.969v4.037c0,1.25,0.252,2.283,0.757,3.1c0.505,0.817,1.141,1.225,1.91,1.225h17.302
		V39.217z"/>
	<path style="fill:#CF121B;" d="M301.254,0v43.47h-7.84c-0.774,0-1.416-0.396-1.924-1.189s-0.761-1.814-0.761-3.064V26.529h-9.3
		V43.47h-7.858c-0.769,0-1.405-0.396-1.91-1.189s-0.757-1.814-0.757-3.064V4.325c0-1.201,0.3-2.222,0.901-3.063
		c0.6-0.84,1.285-1.262,2.055-1.262l7.569,0.072v17.445h6.692c0.704,0,1.315-0.408,1.832-1.225c0.516-0.817,0.775-1.85,0.775-3.1
		V0.072L301.254,0z"/>
	<path style="fill:#CF121B;" d="M334.414,39.111l-0.071,4.287l-23.077,0.072c-0.767,0-1.402-0.411-1.904-1.234
		c-0.504-0.824-0.755-1.866-0.755-3.126c0-1.308,0.264-2.422,0.793-3.342c0.528-0.92,1.153-1.381,1.874-1.381h2.019
		c0.769,0,1.466-0.408,2.091-1.226c0.624-0.816,0.938-1.849,0.938-3.1V9.083h-5.047c-1.778,0-2.667-1.405-2.667-4.216V0.288h23.22
		c0.719,0,1.33,0.445,1.834,1.334c0.502,0.89,0.754,1.959,0.754,3.208c0,1.297-0.252,2.368-0.757,3.208
		c-0.504,0.841-1.117,1.261-1.838,1.261h-4.975v25.087h4.975c0.721,0,1.334,0.461,1.838,1.381
		C334.163,36.689,334.414,37.803,334.414,39.111z"/>
	<path style="fill:#CF121B;" d="M373.776,34.459v4.686c0,1.25-0.265,2.283-0.793,3.1c-0.529,0.818-1.153,1.226-1.875,1.226h-7.497
		c-1.874-0.047-3.388-1.082-4.542-3.1c-0.625-1.105-1.561-3.604-2.811-7.497l-1.225-5.263h-2.018v11.535
		c-0.53,1.634-0.891,2.643-1.082,3.027c-0.385,0.865-0.913,1.298-1.586,1.298h-8.723V0.288h24.943c2.114,0,3.844,0.943,5.19,2.826
		c1.345,1.885,2.019,4.421,2.019,7.61v12.538c0,1.256-0.265,2.295-0.793,3.115c-0.529,0.822-1.153,1.232-1.875,1.232l-5.911-0.216
		l0.865,2.74c0.865,2.883,1.85,4.325,2.956,4.325H373.776z M363.25,13.697c0-1.249-0.265-2.271-0.793-3.064
		c-0.529-0.793-1.153-1.189-1.874-1.189l-7.569-0.216v9.66h10.236V13.697z"/>
	<path style="fill:#CF121B;" d="M411.478,43.47H383.29c-1.538,0-2.307-1.442-2.307-4.325V0.288h23.285
		c2.163,0,3.904,0.95,5.227,2.848c1.321,1.899,1.982,4.482,1.982,7.75V43.47z M400.953,13.481c0-1.25-0.257-2.282-0.77-3.1
		c-0.512-0.816-1.158-1.226-1.939-1.226h-6.734v25.304h9.443V13.481z"/>
</g>
<g>
	<g>
		<path style="fill:#CF121B;" d="M18.176,49.213c0.533,0,1.125-0.03,1.688-0.148l3.375,3.345c-0.415,0.503-0.503,0.947-0.71,1.924
			c-0.562,2.457-2.368,9.236-7.371,14.179c-2.368,2.339-5.654,4.292-8.052,5.684c-0.858-1.065-3.197-3.611-4.677-4.973
			c3.878-1.095,7.993-4.292,9.414-5.832c2.072-2.19,4.026-5.831,4.263-8.288H0v-5.891H18.176z M24.748,52.144
			c-1.658,0-3.02-1.362-3.02-3.02s1.362-3.02,3.02-3.02c1.658,0,3.02,1.362,3.02,3.02S26.405,52.144,24.748,52.144z M23.356,49.153
			c0,0.74,0.622,1.392,1.392,1.392c0.799,0,1.45-0.622,1.45-1.421c0-0.799-0.711-1.421-1.48-1.421
			C23.918,47.703,23.356,48.414,23.356,49.153z"/>
		<path style="fill:#CF121B;" d="M35.487,71.207v1.214h-6.098V50.042h23.622v22.379h-6.068v-1.214H35.487z M46.943,65.612V55.518
			H35.487v10.094H46.943z"/>
		<path style="fill:#CF121B;" d="M76.598,51.759c0.562,0,1.184-0.148,1.717-0.385l3.227,2.309c-0.385,0.503-0.592,1.066-0.799,1.658
			c-2.161,6.513-4.677,10.45-7.489,13.439c-2.279,2.398-4.796,4.559-7.815,5.92c-0.385-0.414-4.588-4.174-5.033-4.529
			c8.91-3.256,12.137-10.183,13.084-12.877h-7.252c-2.28,3.049-3.523,4.44-5.684,6.394c-1.007-0.858-3.819-3.108-4.974-3.877
			c3.227-2.25,7.904-7.815,10.006-13.114l5.772,2.013c0.296,0.119,0.622,0.267,0.622,0.622c0,0.414-0.415,0.533-1.036,0.622
			c-0.562,1.036-0.74,1.362-1.036,1.806H76.598z M75.888,46.371c0.858,0.77,2.309,2.368,2.931,3.197
			c-0.681,0.385-1.895,1.451-2.338,1.954c-0.74-1.006-2.19-2.516-3.227-3.375L75.888,46.371z M80.713,46.075
			c1.095,1.065,2.161,2.309,2.99,3.582c-0.947,0.533-2.19,1.51-2.546,1.806c-1.036-1.658-2.072-2.842-2.96-3.67L80.713,46.075z"/>
		<path style="fill:#CF121B;" d="M104.714,55.696c0.651,0,1.835,0,2.427-0.267l3.138,2.338c-0.326,0.562-1.54,3.079-1.806,3.612
			c-2.546,5.032-4.796,7.548-8.999,10.479c-1.125,0.799-3.108,2.043-5.122,2.694c-0.918-1.451-3.108-4.056-4.085-4.795
			c4.056-1.599,8.881-3.464,11.663-8.614H85.443v-5.447H104.714z M106.697,48.147v5.21H88.462v-5.21H106.697z"/>
		<path style="fill:#CF121B;" d="M116.667,62.948c3.759,0.503,15.689,3.937,19.745,5.891c-0.651,1.983-1.273,3.996-1.835,5.979
			c-7.696-3.937-16.518-5.476-19.3-5.979L116.667,62.948z M117.97,46.726c4.233,0.474,15.245,3.671,16.104,4.086
			c-0.474,1.983-1.214,4.943-1.392,5.95c-3.227-1.717-13.854-4.174-15.808-4.381L117.97,46.726z M119.243,55.044
			c3.582,0.622,9.769,2.161,13.765,4.055c-0.237,0.859-1.036,4.648-1.214,5.743c-3.404-2.131-10.805-3.76-13.587-4.085
			L119.243,55.044z"/>
		<path style="fill:#CF121B;" d="M144.783,48.147c3.049,1.48,6.394,3.641,7.756,4.795c-1.214,1.244-2.724,3.345-3.552,5.033
			c-2.279-2.279-5.625-4.174-7.489-5.121L144.783,48.147z M142.03,67.951c9.591-1.954,18.738-10.064,21.935-16.281
			c1.451,2.516,2.161,3.611,3.434,5.417c-0.562,0.977-6.66,11.042-21.225,16.429c-0.059,0.414-0.089,0.858-0.592,0.858
			c-0.326,0-0.474-0.267-0.622-0.533L142.03,67.951z"/>
		<path style="fill:#CF121B;" d="M189.062,51.759c0.562,0,1.184-0.148,1.717-0.385l3.227,2.309
			c-0.385,0.503-0.592,1.066-0.799,1.658c-2.161,6.513-4.677,10.45-7.489,13.439c-2.279,2.398-4.796,4.559-7.815,5.92
			c-0.385-0.414-4.588-4.174-5.033-4.529c8.91-3.256,12.137-10.183,13.084-12.877h-7.252c-2.28,3.049-3.523,4.44-5.684,6.394
			c-1.007-0.858-3.819-3.108-4.974-3.877c3.227-2.25,7.904-7.815,10.006-13.114l5.773,2.013c0.296,0.119,0.621,0.267,0.621,0.622
			c0,0.414-0.414,0.533-1.036,0.622c-0.562,1.036-0.74,1.362-1.036,1.806H189.062z M188.352,46.371
			c0.858,0.77,2.309,2.368,2.931,3.197c-0.681,0.385-1.895,1.451-2.338,1.954c-0.74-1.006-2.19-2.516-3.226-3.375L188.352,46.371z
			 M193.177,46.075c1.095,1.065,2.161,2.309,2.99,3.582c-0.947,0.533-2.19,1.51-2.546,1.806c-1.036-1.658-2.072-2.842-2.96-3.67
			L193.177,46.075z"/>
		<path style="fill:#CF121B;" d="M198.173,71.385v-5.861h16.726v-9.65h-16.37v-5.773h22.764v22.32h-6.394v-1.036H198.173z"/>
		<path style="fill:#CF121B;" d="M229.13,48.147c3.05,1.48,6.394,3.641,7.756,4.795c-1.213,1.244-2.723,3.345-3.552,5.033
			c-2.279-2.279-5.624-4.174-7.489-5.121L229.13,48.147z M226.377,67.951c9.592-1.954,18.738-10.064,21.936-16.281
			c1.45,2.516,2.161,3.611,3.434,5.417c-0.562,0.977-6.66,11.042-21.225,16.429c-0.059,0.414-0.089,0.858-0.592,0.858
			c-0.325,0-0.474-0.267-0.622-0.533L226.377,67.951z"/>
		<path style="fill:#CF121B;" d="M253.102,61.32v-5.565h25.694v5.565h-9.147c-0.532,8.792-6.423,11.604-10.242,13.114
			c-0.828-1.125-2.516-3.227-4.056-4.795c3.05-0.888,4.707-1.747,6.217-3.463c0.444-0.533,1.895-2.19,2.013-4.855H253.102z
			 M274.859,48.236v5.24h-17.85v-5.24H274.859z"/>
		<path style="fill:#CF121B;" d="M283.705,54.719v-5.743h14.92c1.48,0,1.953-0.207,2.338-0.385l2.901,2.279
			c-0.385,0.503-0.74,1.391-1.036,2.161c-1.658,4.263-1.924,5.003-3.671,7.845c3.108,2.102,7.164,5.328,8.881,7.253
			c-1.065,0.947-3.671,3.996-4.322,5.003c-1.983-2.753-5.802-6.216-7.963-7.756c-1.243,1.391-5.15,5.595-10.834,8.111
			c-0.651-0.947-2.19-3.197-4.233-5.091c5.595-1.717,13.35-7.608,14.92-13.676H283.705z"/>
		<path style="fill:#CF121B;" d="M320.731,54.275c2.99,1.273,8.378,4.115,11.071,6.483c-0.562,0.769-2.901,4.411-3.464,5.328
			c-2.279-2.368-6.749-4.943-8.969-5.92v13.942h-6.395V47.407l6.275,0.118c0.474,0,0.74,0.03,0.74,0.385
			c0,0.267-0.207,0.474-0.621,0.799v7.904L320.731,54.275z"/>
	</g>
	<g>
		<path style="fill:#CF121B;" d="M353.31,54.746v2.964c0,1.753-0.696,3.256-2.088,4.508c-1.252,1.114-2.561,1.67-3.924,1.67h-4.008
			c-0.417,0-0.772,0.237-1.064,0.709c-0.292,0.474-0.438,1.072-0.438,1.795v2.004h11.522v5.343h-16.072
			c-0.445,0-0.815-0.231-1.107-0.691c-0.292-0.46-0.438-1.053-0.438-1.779v-6.405c0-1.758,0.651-3.265,1.955-4.521
			c1.192-1.116,2.454-1.674,3.785-1.674h4.284c0.416,0,0.77-0.234,1.061-0.703c0.291-0.469,0.438-1.062,0.438-1.78V53.87h-11.522
			v-2.816c0-0.69,0.18-1.277,0.542-1.761c0.36-0.482,0.763-0.725,1.208-0.725h11.744c1.193,0,2.179,0.563,2.956,1.691
			C352.921,51.386,353.31,52.882,353.31,54.746z"/>
		<path style="fill:#CF121B;" d="M375.101,48.568v19.036c0,4.091-1.396,6.137-4.189,6.137h-5.782c-0.447,0-0.817-0.236-1.11-0.71
			c-0.294-0.473-0.439-1.071-0.439-1.795v-2.838h3.966c0.417,0,0.778-0.236,1.085-0.71c0.306-0.473,0.459-1.071,0.459-1.795V53.87
			h-5.51v14.528h-4.551c-0.445,0-0.814-0.236-1.106-0.708c-0.292-0.472-0.439-1.069-0.439-1.792v-14.83
			c0-0.722,0.175-1.319,0.523-1.791c0.349-0.472,0.746-0.708,1.192-0.708H375.101z"/>
		<path style="fill:#CF121B;" d="M389.92,73.741h-6.095V53.87h-2.949c-1.04,0-1.56-0.828-1.56-2.483v-2.651h10.604V73.741z"/>
		<path style="fill:#CF121B;" d="M411.711,51.073v2.797h-11.605v2.317c0,0.718,0.152,1.311,0.459,1.78
			c0.307,0.469,0.668,0.703,1.086,0.703h4.3c1.336,0,2.602,0.559,3.799,1.674c1.308,1.256,1.962,2.763,1.962,4.521v6.405
			c0,0.726-0.147,1.318-0.439,1.779c-0.292,0.46-0.661,0.691-1.106,0.691h-16.072v-5.218h11.523v-2.129
			c0-0.724-0.146-1.322-0.436-1.795c-0.29-0.473-0.656-0.709-1.098-0.709h-3.978c-1.345,0-2.648-0.556-3.91-1.67
			c-1.429-1.252-2.129-2.755-2.102-4.508v-9.143h15.827c0.471,0,0.888,0.244,1.249,0.73
			C411.531,49.786,411.711,50.377,411.711,51.073z"/>
	</g>
</g>
</svg>
