<?xml version="1.0" encoding="utf-8"?>
<!-- Generator: Adobe Illustrator 18.0.0, SVG Export Plug-In . SVG Version: 6.00 Build 0)  -->
<!DOCTYPE svg PUBLIC "-//W3C//DTD SVG 1.1//EN" "http://www.w3.org/Graphics/SVG/1.1/DTD/svg11.dtd">
<svg version="1.1" id="レイヤー_1" xmlns="http://www.w3.org/2000/svg" xmlns:xlink="http://www.w3.org/1999/xlink" x="0px"
	 y="0px" viewBox="0 0 411.7 74.8" enable-background="new 0 0 411.7 74.8" xml:space="preserve">
<g>
	<path fill="#CF121B" d="M31.1,0v43.5H3c-1.5,0-2.3-1.4-2.3-4.3V0h10.5v34.2h9.3V0H31.1z"/>
	<path fill="#CF121B" d="M61.8,26.4H38.5v-9h23.3V26.4z"/>
	<path fill="#CF121B" d="M87.3,43.5H76.8V9.2h-5.1c-1.8,0-2.7-1.4-2.7-4.3V0.3h18.3V43.5z"/>
	<path fill="#CF121B" d="M125.1,43.5H97.5c-0.8,0-1.5-0.4-2.1-1.2c-0.6-0.8-0.9-1.8-0.9-3.1V10.7c0-3.2,0.6-5.8,2-7.7
		C97.8,1,99.5,0,101.6,0h20.5c0.8,0,1.5,0.4,2.1,1.3c0.6,0.8,0.9,1.9,0.9,3.1v4.8h-20.3v7.8h12.1c2.3,0,4.2,0.9,5.7,2.6
		c1.7,1.9,2.5,4.6,2.5,8V43.5z M114.6,34.2v-3.9c0-1.3-0.3-2.3-0.8-3.1c-0.5-0.8-1.2-1.2-1.9-1.2H105v8.3H114.6z"/>
	<path fill="#CF121B" d="M188.3,44.5h-7.9c-0.8,0-1.4-0.4-1.9-1.2c-0.5-0.8-0.8-1.8-0.8-3.1v-8.4c0-1.2-0.3-2.2-1-3
		c-0.7-0.8-1.4-1.2-2.2-1.2h-6v16.9h-8c-0.8,0-1.4-0.4-1.9-1.2c-0.5-0.8-0.8-1.8-0.8-3.1V1h10.7v17.5h6.1c0.7,0,1.5-0.4,2.1-1.3
		c0.7-0.8,1-1.9,1-3.1V1.1L188.3,1v10c0,7.1-1.9,10.6-6,10.6c4.1,0,6.1,3.6,6,10.7V44.5z"/>
	<path fill="#CF121B" d="M226,0v43.5h-28.2c-1.5,0-2.3-1.4-2.3-4.3V0H206v34.2h9.3V0H226z"/>
	<path fill="#CF121B" d="M263.7,39.2c0,1.3-0.3,2.3-0.8,3.1c-0.5,0.8-1.1,1.2-1.8,1.2h-27.8v-9.2h19.8v-7.9h-12.8
		c-2.1,0-3.8-1-5.1-2.9c-1.3-1.9-2-4.5-1.9-7.7v-5.1c0-3.2,0.6-5.8,2-7.7c1.4-1.9,3.1-2.9,5.1-2.9h20.3c0.8,0,1.5,0.4,2.1,1.3
		c0.6,0.8,0.9,1.9,0.9,3.1v4.8h-20v4c0,1.3,0.3,2.3,0.8,3.1c0.5,0.8,1.1,1.2,1.9,1.2h17.3V39.2z"/>
	<path fill="#CF121B" d="M301.3,0v43.5h-7.8c-0.8,0-1.4-0.4-1.9-1.2c-0.5-0.8-0.8-1.8-0.8-3.1V26.5h-9.3v16.9h-7.9
		c-0.8,0-1.4-0.4-1.9-1.2c-0.5-0.8-0.8-1.8-0.8-3.1V4.3c0-1.2,0.3-2.2,0.9-3.1c0.6-0.8,1.3-1.3,2.1-1.3l7.6,0.1v17.4h6.7
		c0.7,0,1.3-0.4,1.8-1.2c0.5-0.8,0.8-1.8,0.8-3.1V0.1L301.3,0z"/>
	<path fill="#CF121B" d="M334.4,39.1l-0.1,4.3l-23.1,0.1c-0.8,0-1.4-0.4-1.9-1.2c-0.5-0.8-0.8-1.9-0.8-3.1c0-1.3,0.3-2.4,0.8-3.3
		c0.5-0.9,1.2-1.4,1.9-1.4h2c0.8,0,1.5-0.4,2.1-1.2c0.6-0.8,0.9-1.8,0.9-3.1v-21h-5c-1.8,0-2.7-1.4-2.7-4.2V0.3h23.2
		c0.7,0,1.3,0.4,1.8,1.3c0.5,0.9,0.8,2,0.8,3.2c0,1.3-0.3,2.4-0.8,3.2c-0.5,0.8-1.1,1.3-1.8,1.3h-5v25.1h5c0.7,0,1.3,0.5,1.8,1.4
		C334.2,36.7,334.4,37.8,334.4,39.1z"/>
	<path fill="#CF121B" d="M373.8,34.5v4.7c0,1.2-0.3,2.3-0.8,3.1c-0.5,0.8-1.2,1.2-1.9,1.2h-7.5c-1.9,0-3.4-1.1-4.5-3.1
		c-0.6-1.1-1.6-3.6-2.8-7.5l-1.2-5.3h-2v11.5c-0.5,1.6-0.9,2.6-1.1,3c-0.4,0.9-0.9,1.3-1.6,1.3h-8.7V0.3h24.9c2.1,0,3.8,0.9,5.2,2.8
		c1.3,1.9,2,4.4,2,7.6v12.5c0,1.3-0.3,2.3-0.8,3.1c-0.5,0.8-1.2,1.2-1.9,1.2l-5.9-0.2l0.9,2.7c0.9,2.9,1.8,4.3,3,4.3H373.8z
		 M363.3,13.7c0-1.2-0.3-2.3-0.8-3.1c-0.5-0.8-1.2-1.2-1.9-1.2L353,9.2v9.7h10.2V13.7z"/>
	<path fill="#CF121B" d="M411.5,43.5h-28.2c-1.5,0-2.3-1.4-2.3-4.3V0.3h23.3c2.2,0,3.9,0.9,5.2,2.8c1.3,1.9,2,4.5,2,7.7V43.5z
		 M401,13.5c0-1.2-0.3-2.3-0.8-3.1c-0.5-0.8-1.2-1.2-1.9-1.2h-6.7v25.3h9.4V13.5z"/>
</g>
<g>
	<g>
		<path fill="#CF121B" d="M18.2,49.2c0.5,0,1.1,0,1.7-0.1l3.4,3.3c-0.4,0.5-0.5,0.9-0.7,1.9c-0.6,2.5-2.4,9.2-7.4,14.2
			c-2.4,2.3-5.7,4.3-8.1,5.7c-0.9-1.1-3.2-3.6-4.7-5c3.9-1.1,8-4.3,9.4-5.8c2.1-2.2,4-5.8,4.3-8.3H0v-5.9H18.2z M24.7,52.1
			c-1.7,0-3-1.4-3-3c0-1.7,1.4-3,3-3c1.7,0,3,1.4,3,3C27.8,50.8,26.4,52.1,24.7,52.1z M23.4,49.2c0,0.7,0.6,1.4,1.4,1.4
			c0.8,0,1.5-0.6,1.5-1.4c0-0.8-0.7-1.4-1.5-1.4C23.9,47.7,23.4,48.4,23.4,49.2z"/>
		<path fill="#CF121B" d="M35.5,71.2v1.2h-6.1V50H53v22.4h-6.1v-1.2H35.5z M46.9,65.6V55.5H35.5v10.1H46.9z"/>
		<path fill="#CF121B" d="M76.6,51.8c0.6,0,1.2-0.1,1.7-0.4l3.2,2.3c-0.4,0.5-0.6,1.1-0.8,1.7c-2.2,6.5-4.7,10.4-7.5,13.4
			c-2.3,2.4-4.8,4.6-7.8,5.9c-0.4-0.4-4.6-4.2-5-4.5c8.9-3.3,12.1-10.2,13.1-12.9h-7.3c-2.3,3-3.5,4.4-5.7,6.4c-1-0.9-3.8-3.1-5-3.9
			c3.2-2.2,7.9-7.8,10-13.1l5.8,2c0.3,0.1,0.6,0.3,0.6,0.6c0,0.4-0.4,0.5-1,0.6c-0.6,1-0.7,1.4-1,1.8H76.6z M75.9,46.4
			c0.9,0.8,2.3,2.4,2.9,3.2c-0.7,0.4-1.9,1.5-2.3,2c-0.7-1-2.2-2.5-3.2-3.4L75.9,46.4z M80.7,46.1c1.1,1.1,2.2,2.3,3,3.6
			c-0.9,0.5-2.2,1.5-2.5,1.8c-1-1.7-2.1-2.8-3-3.7L80.7,46.1z"/>
		<path fill="#CF121B" d="M104.7,55.7c0.7,0,1.8,0,2.4-0.3l3.1,2.3c-0.3,0.6-1.5,3.1-1.8,3.6c-2.5,5-4.8,7.5-9,10.5
			c-1.1,0.8-3.1,2-5.1,2.7c-0.9-1.5-3.1-4.1-4.1-4.8c4.1-1.6,8.9-3.5,11.7-8.6H85.4v-5.4H104.7z M106.7,48.1v5.2H88.5v-5.2H106.7z"
			/>
		<path fill="#CF121B" d="M116.7,62.9c3.8,0.5,15.7,3.9,19.7,5.9c-0.7,2-1.3,4-1.8,6c-7.7-3.9-16.5-5.5-19.3-6L116.7,62.9z
			 M118,46.7c4.2,0.5,15.2,3.7,16.1,4.1c-0.5,2-1.2,4.9-1.4,5.9c-3.2-1.7-13.9-4.2-15.8-4.4L118,46.7z M119.2,55
			c3.6,0.6,9.8,2.2,13.8,4.1c-0.2,0.9-1,4.6-1.2,5.7c-3.4-2.1-10.8-3.8-13.6-4.1L119.2,55z"/>
		<path fill="#CF121B" d="M144.8,48.1c3,1.5,6.4,3.6,7.8,4.8c-1.2,1.2-2.7,3.3-3.6,5c-2.3-2.3-5.6-4.2-7.5-5.1L144.8,48.1z M142,68
			c9.6-2,18.7-10.1,21.9-16.3c1.5,2.5,2.2,3.6,3.4,5.4c-0.6,1-6.7,11-21.2,16.4c-0.1,0.4-0.1,0.9-0.6,0.9c-0.3,0-0.5-0.3-0.6-0.5
			L142,68z"/>
		<path fill="#CF121B" d="M189.1,51.8c0.6,0,1.2-0.1,1.7-0.4l3.2,2.3c-0.4,0.5-0.6,1.1-0.8,1.7c-2.2,6.5-4.7,10.4-7.5,13.4
			c-2.3,2.4-4.8,4.6-7.8,5.9c-0.4-0.4-4.6-4.2-5-4.5C181.8,66.9,185,60,186,57.3h-7.3c-2.3,3-3.5,4.4-5.7,6.4c-1-0.9-3.8-3.1-5-3.9
			c3.2-2.2,7.9-7.8,10-13.1l5.8,2c0.3,0.1,0.6,0.3,0.6,0.6c0,0.4-0.4,0.5-1,0.6c-0.6,1-0.7,1.4-1,1.8H189.1z M188.4,46.4
			c0.9,0.8,2.3,2.4,2.9,3.2c-0.7,0.4-1.9,1.5-2.3,2c-0.7-1-2.2-2.5-3.2-3.4L188.4,46.4z M193.2,46.1c1.1,1.1,2.2,2.3,3,3.6
			c-0.9,0.5-2.2,1.5-2.5,1.8c-1-1.7-2.1-2.8-3-3.7L193.2,46.1z"/>
		<path fill="#CF121B" d="M198.2,71.4v-5.9h16.7v-9.7h-16.4v-5.8h22.8v22.3h-6.4v-1H198.2z"/>
		<path fill="#CF121B" d="M229.1,48.1c3,1.5,6.4,3.6,7.8,4.8c-1.2,1.2-2.7,3.3-3.6,5c-2.3-2.3-5.6-4.2-7.5-5.1L229.1,48.1z
			 M226.4,68c9.6-2,18.7-10.1,21.9-16.3c1.5,2.5,2.2,3.6,3.4,5.4c-0.6,1-6.7,11-21.2,16.4c-0.1,0.4-0.1,0.9-0.6,0.9
			c-0.3,0-0.5-0.3-0.6-0.5L226.4,68z"/>
		<path fill="#CF121B" d="M253.1,61.3v-5.6h25.7v5.6h-9.1c-0.5,8.8-6.4,11.6-10.2,13.1c-0.8-1.1-2.5-3.2-4.1-4.8
			c3-0.9,4.7-1.7,6.2-3.5c0.4-0.5,1.9-2.2,2-4.9H253.1z M274.9,48.2v5.2H257v-5.2H274.9z"/>
		<path fill="#CF121B" d="M283.7,54.7V49h14.9c1.5,0,2-0.2,2.3-0.4l2.9,2.3c-0.4,0.5-0.7,1.4-1,2.2c-1.7,4.3-1.9,5-3.7,7.8
			c3.1,2.1,7.2,5.3,8.9,7.3c-1.1,0.9-3.7,4-4.3,5c-2-2.8-5.8-6.2-8-7.8c-1.2,1.4-5.2,5.6-10.8,8.1c-0.7-0.9-2.2-3.2-4.2-5.1
			c5.6-1.7,13.4-7.6,14.9-13.7H283.7z"/>
		<path fill="#CF121B" d="M320.7,54.3c3,1.3,8.4,4.1,11.1,6.5c-0.6,0.8-2.9,4.4-3.5,5.3c-2.3-2.4-6.7-4.9-9-5.9v13.9H313V47.4
			l6.3,0.1c0.5,0,0.7,0,0.7,0.4c0,0.3-0.2,0.5-0.6,0.8v7.9L320.7,54.3z"/>
	</g>
	<g>
		<path fill="#CF121B" d="M353.3,54.7v3c0,1.8-0.7,3.3-2.1,4.5c-1.3,1.1-2.6,1.7-3.9,1.7h-4c-0.4,0-0.8,0.2-1.1,0.7
			c-0.3,0.5-0.4,1.1-0.4,1.8v2h11.5v5.3h-16.1c-0.4,0-0.8-0.2-1.1-0.7c-0.3-0.5-0.4-1.1-0.4-1.8v-6.4c0-1.8,0.7-3.3,2-4.5
			c1.2-1.1,2.5-1.7,3.8-1.7h4.3c0.4,0,0.8-0.2,1.1-0.7c0.3-0.5,0.4-1.1,0.4-1.8v-2.3h-11.5v-2.8c0-0.7,0.2-1.3,0.5-1.8
			c0.4-0.5,0.8-0.7,1.2-0.7h11.7c1.2,0,2.2,0.6,3,1.7C352.9,51.4,353.3,52.9,353.3,54.7z"/>
		<path fill="#CF121B" d="M375.1,48.6v19c0,4.1-1.4,6.1-4.2,6.1h-5.8c-0.4,0-0.8-0.2-1.1-0.7c-0.3-0.5-0.4-1.1-0.4-1.8v-2.8h4
			c0.4,0,0.8-0.2,1.1-0.7c0.3-0.5,0.5-1.1,0.5-1.8v-12h-5.5v14.5H359c-0.4,0-0.8-0.2-1.1-0.7c-0.3-0.5-0.4-1.1-0.4-1.8V51.1
			c0-0.7,0.2-1.3,0.5-1.8c0.3-0.5,0.7-0.7,1.2-0.7H375.1z"/>
		<path fill="#CF121B" d="M389.9,73.7h-6.1V53.9h-2.9c-1,0-1.6-0.8-1.6-2.5v-2.7h10.6V73.7z"/>
		<path fill="#CF121B" d="M411.7,51v22.7h-6v-9.9h-10.1c-0.4,0-0.8-0.2-1.1-0.7c-0.3-0.5-0.5-1.1-0.5-1.8V48.6l6.1,0.1v10h4
			c0.4,0,0.8-0.2,1.1-0.7c0.3-0.5,0.5-1.1,0.5-1.8v-7.6l4.4,0c0.4,0,0.8,0.2,1.1,0.7C411.6,49.7,411.7,50.3,411.7,51z"/>
	</g>
</g>
</svg>
