<svg id="レイヤー_1" data-name="レイヤー 1" xmlns="http://www.w3.org/2000/svg" viewBox="0 0 411.16 74.82"><defs><style>.cls-1{fill:#cf121b;}</style></defs><title>logo</title><path class="cls-1" d="M31.14,0V43.47H3q-2.31,0-2.31-4.33V0H11.17V34.24h9.3V0Z" transform="translate(-0.65 0)"/><path class="cls-1" d="M61.78,26.39H38.49v-9H61.78Z" transform="translate(-0.65 0)"/><path class="cls-1" d="M87.3,43.47H76.77V9.15H71.68Q69,9.15,69,4.87V.29H87.3V43.47Z" transform="translate(-0.65 0)"/><path class="cls-1" d="M125.14,43.47H97.46a2.55,2.55,0,0,1-2.05-1.23,5.08,5.08,0,0,1-.9-3.1V10.67a13,13,0,0,1,2-7.75A6.06,6.06,0,0,1,101.6,0h20.5a2.65,2.65,0,0,1,2.1,1.26,5,5,0,0,1,.94,3.06V9.15H104.81v7.79h12.08a7.36,7.36,0,0,1,5.71,2.59q2.53,2.88,2.53,8V43.47Zm-10.53-9.23V30.31a5.62,5.62,0,0,0-.8-3.14A2.27,2.27,0,0,0,111.93,26H105v8.29h9.59Z" transform="translate(-0.65 0)"/><path class="cls-1" d="M188.29,44.48h-7.86a2.22,2.22,0,0,1-1.91-1.19,5.61,5.61,0,0,1-.76-3.06V31.79a4.64,4.64,0,0,0-1-3,2.86,2.86,0,0,0-2.22-1.23h-6V44.48h-8a2.22,2.22,0,0,1-1.91-1.19,5.64,5.64,0,0,1-.76-3.07V1h10.67V18.53h6.08a2.81,2.81,0,0,0,2.13-1.26,4.73,4.73,0,0,0,1-3.06V1.08L188.29,1V11q.07,10.6-6,10.6,6.13,0,6,10.67Z" transform="translate(-0.65 0)"/><path class="cls-1" d="M226,0V43.47H197.81q-2.31,0-2.31-4.33V0H206V34.24h9.3V0Z" transform="translate(-0.65 0)"/><path class="cls-1" d="M263.7,39.22a5.63,5.63,0,0,1-.76,3.06,2.17,2.17,0,0,1-1.83,1.19H233.35V34.24h19.82V26.38H240.41a6,6,0,0,1-5.12-2.91,13,13,0,0,1-1.95-7.73v-5.1a12.81,12.81,0,0,1,2-7.73A6.1,6.1,0,0,1,240.47,0h20.28a2.54,2.54,0,0,1,2.05,1.26,5.14,5.14,0,0,1,.9,3.06V9.15h-20v4a5.8,5.8,0,0,0,.76,3.1,2.21,2.21,0,0,0,1.91,1.23h17.3v21.7Z" transform="translate(-0.65 0)"/><path class="cls-1" d="M301.25,0V43.47h-7.84a2.24,2.24,0,0,1-1.92-1.19,5.59,5.59,0,0,1-.76-3.06V26.53h-9.3V43.47h-7.86a2.22,2.22,0,0,1-1.91-1.19,5.62,5.62,0,0,1-.76-3.06V4.32a5.13,5.13,0,0,1,.9-3.06A2.54,2.54,0,0,1,273.86,0l7.57.07V17.52h6.69A2.2,2.2,0,0,0,290,16.29a5.71,5.71,0,0,0,.77-3.1V.07Z" transform="translate(-0.65 0)"/><path class="cls-1" d="M334.41,39.11l-.07,4.29-23.08.07a2.2,2.2,0,0,1-1.9-1.23,5.9,5.9,0,0,1-.76-3.13,6.6,6.6,0,0,1,.79-3.34,2.24,2.24,0,0,1,1.87-1.38h2a2.64,2.64,0,0,0,2.09-1.23,5,5,0,0,0,.94-3.1v-21h-5q-2.67,0-2.67-4.22V.29h23.22a2.16,2.16,0,0,1,1.83,1.33,6.43,6.43,0,0,1,.75,3.21A6.15,6.15,0,0,1,333.66,8a2.16,2.16,0,0,1-1.84,1.26h-5V34.39h5a2.17,2.17,0,0,1,1.84,1.38A6.88,6.88,0,0,1,334.41,39.11Z" transform="translate(-0.65 0)"/><path class="cls-1" d="M373.78,34.46v4.69a5.61,5.61,0,0,1-.79,3.1,2.25,2.25,0,0,1-1.87,1.23h-7.5q-2.81-.07-4.54-3.1a50.56,50.56,0,0,1-2.81-7.5L355,27.61h-2V39.15a30.87,30.87,0,0,1-1.08,3q-.58,1.3-1.59,1.3h-8.72V.29h24.94a6.13,6.13,0,0,1,5.19,2.83,12.86,12.86,0,0,1,2,7.61V23.26a5.65,5.65,0,0,1-.79,3.11,2.25,2.25,0,0,1-1.87,1.23l-5.91-.22.86,2.74q1.3,4.32,3,4.32h4.76ZM363.25,13.7a5.43,5.43,0,0,0-.79-3.06,2.26,2.26,0,0,0-1.87-1.19L353,9.23v9.66h10.24Z" transform="translate(-0.65 0)"/><path class="cls-1" d="M411.48,43.47H383.29q-2.31,0-2.31-4.33V.29h23.29a6.1,6.1,0,0,1,5.23,2.85,13.37,13.37,0,0,1,2,7.75V43.47ZM401,13.48a5.74,5.74,0,0,0-.77-3.1,2.25,2.25,0,0,0-1.94-1.23h-6.73v25.3H401Z" transform="translate(-0.65 0)"/><path class="cls-1" d="M98.18,49.21a8.35,8.35,0,0,0,1.69-.15l3.37,3.35a3.9,3.9,0,0,0-.71,1.92c-.56,2.46-2.37,9.24-7.37,14.18a41,41,0,0,1-8.05,5.68,62,62,0,0,0-4.68-5,24.38,24.38,0,0,0,9.41-5.83c2.07-2.19,4-5.83,4.26-8.29H80V49.21Zm6.57,2.93a3,3,0,1,1,3-3A3,3,0,0,1,104.75,52.14Zm-1.39-3a1.41,1.41,0,0,0,1.39,1.39,1.43,1.43,0,0,0,1.45-1.42,1.47,1.47,0,0,0-1.48-1.42A1.42,1.42,0,0,0,103.36,49.15Z" transform="translate(-0.65 0)"/><path class="cls-1" d="M115.49,71.21v1.21h-6.1V50H133V72.42h-6.07V71.21Zm11.46-5.6V55.52H115.49V65.61Z" transform="translate(-0.65 0)"/><path class="cls-1" d="M156.6,51.76a4.39,4.39,0,0,0,1.72-.38l3.23,2.31a5.71,5.71,0,0,0-.8,1.66c-2.16,6.51-4.68,10.45-7.49,13.44a25.4,25.4,0,0,1-7.82,5.92c-.39-.41-4.59-4.17-5-4.53a21.43,21.43,0,0,0,13.08-12.88h-7.25a38.09,38.09,0,0,1-5.68,6.39c-1-.86-3.82-3.11-5-3.88a33.37,33.37,0,0,0,10-13.11l5.77,2c.3.12.62.27.62.62s-.42.53-1,.62c-.56,1-.74,1.36-1,1.81h6.69Zm-.71-5.39a29.35,29.35,0,0,1,2.93,3.2,12.76,12.76,0,0,0-2.34,2,23,23,0,0,0-3.23-3.37Zm4.82-.3a21.57,21.57,0,0,1,3,3.58,21.4,21.4,0,0,0-2.55,1.81,18.08,18.08,0,0,0-3-3.67Z" transform="translate(-0.65 0)"/><path class="cls-1" d="M184.71,55.7a7.36,7.36,0,0,0,2.43-.27l3.14,2.34c-.33.56-1.54,3.08-1.81,3.61a24.69,24.69,0,0,1-9,10.48,20.42,20.42,0,0,1-5.12,2.69,26.11,26.11,0,0,0-4.08-4.79c4.06-1.6,8.88-3.46,11.66-8.61H165.44V55.7Zm2-7.55v5.21H168.46V48.15Z" transform="translate(-0.65 0)"/><path class="cls-1" d="M196.67,62.95c3.76.5,15.69,3.94,19.75,5.89-.65,2-1.27,4-1.84,6-7.7-3.94-16.52-5.48-19.3-6ZM198,46.73c4.23.47,15.24,3.67,16.1,4.09-.47,2-1.21,4.94-1.39,6-3.23-1.72-13.85-4.17-15.81-4.38ZM199.24,55A62.33,62.33,0,0,1,213,59.1c-.24.86-1,4.65-1.21,5.74-3.4-2.13-10.81-3.76-13.59-4.08Z" transform="translate(-0.65 0)"/><path class="cls-1" d="M224.78,48.15a44.77,44.77,0,0,1,7.76,4.8A22.24,22.24,0,0,0,229,58a31.61,31.61,0,0,0-7.49-5.12ZM222,68c9.59-2,18.74-10.06,21.93-16.28a59.32,59.32,0,0,0,3.43,5.42c-.56,1-6.66,11-21.23,16.43-.06.41-.09.86-.59.86-.33,0-.47-.27-.62-.53Z" transform="translate(-0.65 0)"/><path class="cls-1" d="M269.06,51.76a4.39,4.39,0,0,0,1.72-.38L274,53.68a5.71,5.71,0,0,0-.8,1.66c-2.16,6.51-4.68,10.45-7.49,13.44a25.4,25.4,0,0,1-7.82,5.92c-.38-.41-4.59-4.17-5-4.53A21.43,21.43,0,0,0,266,57.29H258.7A38.09,38.09,0,0,1,253,63.69c-1-.86-3.82-3.11-5-3.88A33.37,33.37,0,0,0,258,46.7l5.77,2c.3.12.62.27.62.62s-.41.53-1,.62c-.56,1-.74,1.36-1,1.81h6.69Zm-.71-5.39a29.35,29.35,0,0,1,2.93,3.2,12.76,12.76,0,0,0-2.34,2,23.08,23.08,0,0,0-3.23-3.37Zm4.82-.3a21.57,21.57,0,0,1,3,3.58,21.4,21.4,0,0,0-2.55,1.81,18.08,18.08,0,0,0-3-3.67Z" transform="translate(-0.65 0)"/><path class="cls-1" d="M278.17,71.39V65.52H294.9V55.87H278.53V50.1h22.76V72.42H294.9v-1Z" transform="translate(-0.65 0)"/><path class="cls-1" d="M309.13,48.15a44.73,44.73,0,0,1,7.76,4.8,22.3,22.3,0,0,0-3.55,5,31.59,31.59,0,0,0-7.49-5.12ZM306.38,68c9.59-2,18.74-10.06,21.94-16.28a59.1,59.1,0,0,0,3.43,5.42c-.56,1-6.66,11-21.23,16.43-.06.41-.09.86-.59.86-.32,0-.47-.27-.62-.53Z" transform="translate(-0.65 0)"/><path class="cls-1" d="M333.1,61.32V55.76H358.8v5.56h-9.15c-.53,8.79-6.42,11.6-10.24,13.11a50.64,50.64,0,0,0-4.06-4.79c3-.89,4.71-1.75,6.22-3.46a7.91,7.91,0,0,0,2-4.85H333.1Zm21.76-13.08v5.24H337V48.24Z" transform="translate(-0.65 0)"/><path class="cls-1" d="M363.7,54.72V49h14.92a4.79,4.79,0,0,0,2.34-.38l2.9,2.28a9.78,9.78,0,0,0-1,2.16c-1.66,4.26-1.92,5-3.67,7.85A58.79,58.79,0,0,1,388,68.13a41.37,41.37,0,0,0-4.32,5,41.56,41.56,0,0,0-8-7.76,33.13,33.13,0,0,1-10.83,8.11,30.47,30.47,0,0,0-4.23-5.09c5.6-1.72,13.35-7.61,14.92-13.68H363.7Z" transform="translate(-0.65 0)"/><path class="cls-1" d="M400.73,54.28c3,1.27,8.38,4.11,11.07,6.48-.56.77-2.9,4.41-3.46,5.33a34.22,34.22,0,0,0-9-5.92V74.11H393V47.41l6.27.12c.47,0,.74,0,.74.38s-.21.47-.62.8v7.9Z" transform="translate(-0.65 0)"/></svg>